<svg width="24" height="12" viewBox="0 0 24 12" fill="none" xmlns="http://www.w3.org/2000/svg">
<rect width="24" height="12" rx="2" fill="#089146"/>
<path d="M7.40889 7.904V3H8.16089V8.744H7.10489L4.48889 3.848H4.47289V8.744H3.71289V3H4.76089L7.39289 7.904H7.40889Z" fill="white"/>
<path d="M13.2279 8.048V8.744H9.58789V3H13.1639V3.704H10.3719V5.456H12.7799V6.16H10.3719V8.048H13.2279Z" fill="white"/>
<path d="M14.641 3L15.793 7.864H15.809L16.945 3H17.825L18.977 7.864H18.993L20.137 3H20.953L19.449 8.744H18.561L17.393 3.888L16.217 8.744H15.337L13.825 3H14.641Z" fill="white"/>
</svg>
