<svg width="24" height="12" viewBox="0 0 24 12" fill="none" xmlns="http://www.w3.org/2000/svg">
<rect width="24" height="12" rx="2" fill="#E54545"/>
<path d="M9.23991 3.112V8.856H8.46391V6.28H5.49591V8.856H4.71191V3.112H5.49591V5.584H8.46391V3.112H9.23991Z" fill="white"/>
<path d="M13.089 8.968C12.5504 8.968 12.0704 8.84 11.649 8.584C11.2277 8.32267 10.897 7.96533 10.657 7.512C10.4224 7.05867 10.305 6.54933 10.305 5.984C10.305 5.41867 10.4224 4.90933 10.657 4.456C10.897 4.00267 11.2277 3.648 11.649 3.392C12.0704 3.13067 12.5504 3 13.089 3C13.6277 3 14.1077 3.13067 14.529 3.392C14.9504 3.648 15.2784 4.00267 15.513 4.456C15.7477 4.90933 15.865 5.41867 15.865 5.984C15.865 6.54933 15.745 7.05867 15.505 7.512C15.2704 7.96533 14.9424 8.32267 14.521 8.584C14.0997 8.84 13.6224 8.968 13.089 8.968ZM13.089 8.264C13.489 8.264 13.8384 8.168 14.137 7.976C14.4357 7.77867 14.665 7.50667 14.825 7.16C14.9904 6.81333 15.073 6.42133 15.073 5.984C15.073 5.54667 14.9904 5.15467 14.825 4.808C14.665 4.46133 14.4357 4.192 14.137 4C13.8384 3.80267 13.489 3.704 13.089 3.704C12.689 3.704 12.337 3.80267 12.033 4C11.7344 4.192 11.5024 4.46133 11.337 4.808C11.177 5.15467 11.097 5.54667 11.097 5.984C11.097 6.42133 11.177 6.81333 11.337 7.16C11.5024 7.50667 11.7344 7.77867 12.033 7.976C12.337 8.168 12.689 8.264 13.089 8.264Z" fill="white"/>
<path d="M20.407 3.824H18.583V8.856H17.807V3.824H15.999V3.112H20.407V3.824Z" fill="white"/>
</svg>
