<svg width="48" height="48" viewBox="0 0 48 48" fill="none" xmlns="http://www.w3.org/2000/svg">
<g clip-path="url(#clip0_12_566)">
<g filter="url(#filter0_b_12_566)">
<rect y="4" width="34" height="24" rx="2" fill="url(#paint0_linear_12_566)"/>
</g>
<g filter="url(#filter1_b_12_566)">
<rect x="8" y="11" width="40" height="34" rx="2" fill="#99C5FF" fill-opacity="0.4"/>
<rect x="8.5" y="11.5" width="39" height="33" rx="1.5" stroke="url(#paint1_linear_12_566)"/>
</g>
<path fill-rule="evenodd" clip-rule="evenodd" d="M16.5 28.3793C16.5 26.2368 18.2368 24.5 20.3793 24.5C20.7173 24.5 21.2822 24.6723 22.0605 25.132C22.8031 25.5707 23.5847 26.1773 24.3148 26.8175C24.9449 27.37 25.5124 27.9259 25.9537 28.3793C25.5124 28.8327 24.9449 29.3886 24.3148 29.9411C23.5847 30.5813 22.8031 31.1879 22.0605 31.6266C21.2822 32.0863 20.7173 32.2586 20.3793 32.2586C18.2368 32.2586 16.5 30.5218 16.5 28.3793ZM28 26.181C27.5337 25.7059 26.9468 25.1353 26.2926 24.5618C25.489 23.8572 24.5511 23.1189 23.5863 22.549C22.6571 22.0001 21.5267 21.5 20.3793 21.5C16.58 21.5 13.5 24.58 13.5 28.3793C13.5 32.1786 16.58 35.2586 20.3793 35.2586C21.5267 35.2586 22.6571 34.7585 23.5863 34.2096C24.5511 33.6397 25.489 32.9014 26.2926 32.1968C26.9468 31.6233 27.5337 31.0527 28 30.5776C28.4664 31.0527 29.0533 31.6233 29.7074 32.1968C30.511 32.9014 31.449 33.6397 32.4137 34.2096C33.3429 34.7585 34.4733 35.2586 35.6207 35.2586C39.42 35.2586 42.5 32.1786 42.5 28.3793C42.5 24.58 39.42 21.5 35.6207 21.5C34.4733 21.5 33.3429 22.0001 32.4137 22.549C31.449 23.1189 30.511 23.8572 29.7074 24.5618C29.0533 25.1353 28.4664 25.7059 28 26.181ZM31.6852 29.9411C31.0551 29.3886 30.4876 28.8327 30.0464 28.3793C30.4876 27.9259 31.0551 27.37 31.6852 26.8175C32.4153 26.1773 33.1969 25.5707 33.9396 25.132C34.7178 24.6723 35.2827 24.5 35.6207 24.5C37.7632 24.5 39.5 26.2368 39.5 28.3793C39.5 30.5218 37.7632 32.2586 35.6207 32.2586C35.2827 32.2586 34.7178 32.0863 33.9396 31.6266C33.1969 31.1879 32.4153 30.5813 31.6852 29.9411Z" fill="white"/>
</g>
<defs>
<filter id="filter0_b_12_566" x="-5.43656" y="-1.43656" width="44.8731" height="34.8731" filterUnits="userSpaceOnUse" color-interpolation-filters="sRGB">
<feFlood flood-opacity="0" result="BackgroundImageFix"/>
<feGaussianBlur in="BackgroundImage" stdDeviation="2.71828"/>
<feComposite in2="SourceAlpha" operator="in" result="effect1_backgroundBlur_12_566"/>
<feBlend mode="normal" in="SourceGraphic" in2="effect1_backgroundBlur_12_566" result="shape"/>
</filter>
<filter id="filter1_b_12_566" x="2.56344" y="5.56344" width="50.8731" height="44.8731" filterUnits="userSpaceOnUse" color-interpolation-filters="sRGB">
<feFlood flood-opacity="0" result="BackgroundImageFix"/>
<feGaussianBlur in="BackgroundImage" stdDeviation="2.71828"/>
<feComposite in2="SourceAlpha" operator="in" result="effect1_backgroundBlur_12_566"/>
<feBlend mode="normal" in="SourceGraphic" in2="effect1_backgroundBlur_12_566" result="shape"/>
</filter>
<linearGradient id="paint0_linear_12_566" x1="0.62877" y1="27.7781" x2="34" y2="27.7781" gradientUnits="userSpaceOnUse">
<stop stop-color="#006EFF"/>
<stop offset="1" stop-color="#0052D9"/>
</linearGradient>
<linearGradient id="paint1_linear_12_566" x1="68" y1="28" x2="34.4441" y2="-11.4775" gradientUnits="userSpaceOnUse">
<stop stop-color="#006EFF" stop-opacity="0.199902"/>
<stop offset="1" stop-color="white" stop-opacity="0.404666"/>
</linearGradient>
<clipPath id="clip0_12_566">
<rect width="48" height="48" fill="white"/>
</clipPath>
</defs>
</svg>
